<?xml version="1.0" encoding="UTF-8" standalone="no"?><svg xmlns="http://www.w3.org/2000/svg" xmlns:xlink="http://www.w3.org/1999/xlink" clip-rule="evenodd" stroke-miterlimit="4.00" viewBox="0 0 1920 1080"><desc>SVG generated by Keynote</desc><defs></defs><g transform="matrix(1.00, 0.00, -0.00, -1.00, 0.0, 1080.0)"><g><clipPath id="clip-42"><path d="M 0.0 1080.0 L 1920.0 1080.0 L 1920.0 0.0 L 0.0 0.0 Z M 0.0 1080.0 "></path></clipPath><g clip-path="url(#clip-42)"><image xlink:href="7935799CFC4CBB568BC4FE19591F6190.jpeg" width="1365.00" height="767.00" transform="matrix(1.41, 0.00, -0.00, -1.41, 0.0, 1080.0)"></image></g></g><image xlink:href="80A327EE9DF797581279D77EF2C6DF3E.png" width="937.00" height="1542.00" transform="matrix(1.00, 0.00, -0.00, -1.00, 854.1, 1299.7)"></image><g><clipPath id="clip-43"><path d="M 894.0 986.0 L 1751.0 986.0 L 1751.0 73.0 L 894.0 73.0 Z M 894.1 986.3 "></path></clipPath><g clip-path="url(#clip-43)"><image xlink:href="9575CFE54B29B4E03BFE361C85E9AFBB.png" width="508.00" height="540.00" transform="matrix(1.69, 0.00, -0.00, -1.69, 894.0, 985.0)"></image></g></g><text xml:space="preserve" font-family="Futura-Medium" font-size="36.5" fill="#5B5753" transform="matrix(1.00, 0.00, -0.00, -1.00, 114.0, 575.0)">I</text><text xml:space="preserve" font-family="Futura-Medium" font-size="36.5" fill="#5B5753" transform="matrix(1.00, 0.00, -0.00, -1.00, 128.0, 575.0)">N</text><text xml:space="preserve" font-family="Futura-Medium" font-size="36.5" fill="#5B5753" transform="matrix(1.00, 0.00, -0.00, -1.00, 162.1, 575.0)"> </text><text xml:space="preserve" font-family="Futura-Medium" font-size="36.5" fill="#5B5753" transform="matrix(1.00, 0.00, -0.00, -1.00, 176.7, 575.0)">A</text><text xml:space="preserve" font-family="Futura-Medium" font-size="36.5" fill="#5B5753" transform="matrix(1.00, 0.00, -0.00, -1.00, 207.0, 575.0)"> </text><text xml:space="preserve" font-family="Futura-Medium" font-size="36.5" fill="#5B5753" transform="matrix(1.00, 0.00, -0.00, -1.00, 221.5, 575.0)">F</text><text xml:space="preserve" font-family="Futura-Medium" font-size="36.5" fill="#5B5753" transform="matrix(1.00, 0.00, -0.00, -1.00, 243.3, 575.0)">R</text><text xml:space="preserve" font-family="Futura-Medium" font-size="36.5" fill="#5B5753" transform="matrix(1.00, 0.00, -0.00, -1.00, 268.6, 575.0)">I</text><text xml:space="preserve" font-family="Futura-Medium" font-size="36.5" fill="#5B5753" transform="matrix(1.00, 0.00, -0.00, -1.00, 282.6, 575.0)">E</text><text xml:space="preserve" font-family="Futura-Medium" font-size="36.5" fill="#5B5753" transform="matrix(1.00, 0.00, -0.00, -1.00, 306.5, 575.0)">N</text><text xml:space="preserve" font-family="Futura-Medium" font-size="36.5" fill="#5B5753" transform="matrix(1.00, 0.00, -0.00, -1.00, 340.6, 575.0)">D</text><text xml:space="preserve" font-family="Futura-Medium" font-size="36.5" fill="#5B5753" transform="matrix(1.00, 0.00, -0.00, -1.00, 370.4, 575.0)">L</text><text xml:space="preserve" font-family="Futura-Medium" font-size="36.5" fill="#5B5753" transform="matrix(1.00, 0.00, -0.00, -1.00, 387.5, 575.0)">Y</text><text xml:space="preserve" font-family="Futura-Medium" font-size="36.5" fill="#5B5753" transform="matrix(1.00, 0.00, -0.00, -1.00, 412.7, 575.0)"> </text><text xml:space="preserve" font-family="Futura-Medium" font-size="36.5" fill="#5B5753" transform="matrix(1.00, 0.00, -0.00, -1.00, 427.2, 575.0)">F</text><text xml:space="preserve" font-family="Futura-Medium" font-size="36.5" fill="#5B5753" transform="matrix(1.00, 0.00, -0.00, -1.00, 449.1, 575.0)">O</text><text xml:space="preserve" font-family="Futura-Medium" font-size="36.5" fill="#5B5753" transform="matrix(1.00, 0.00, -0.00, -1.00, 484.9, 575.0)">R</text><text xml:space="preserve" font-family="Futura-Medium" font-size="36.5" fill="#5B5753" transform="matrix(1.00, 0.00, -0.00, -1.00, 510.2, 575.0)">M</text><text xml:space="preserve" font-family="Futura-Medium" font-size="36.5" fill="#5B5753" transform="matrix(1.00, 0.00, -0.00, -1.00, 548.6, 575.0)">A</text><text xml:space="preserve" font-family="Futura-Medium" font-size="36.5" fill="#5B5753" transform="matrix(1.00, 0.00, -0.00, -1.00, 577.3, 575.0)">T</text><text xml:space="preserve" font-family="Futura-Medium" font-size="36.5" fill="#5B5753" transform="matrix(1.00, 0.00, -0.00, -1.00, 598.3, 575.0)"> </text><text xml:space="preserve" font-family="Futura-Medium" font-size="36.5" fill="#5B5753" transform="matrix(1.00, 0.00, -0.00, -1.00, 612.8, 575.0)"> </text><text xml:space="preserve" font-family="Futura-Medium" font-size="36.5" fill="#5B5753" transform="matrix(1.00, 0.00, -0.00, -1.00, 114.0, 479.0)">-</text><text xml:space="preserve" font-family="Futura-Medium" font-size="36.5" fill="#5B5753" transform="matrix(1.00, 0.00, -0.00, -1.00, 125.2, 479.0)"> </text><text xml:space="preserve" font-family="Futura-Medium" font-size="36.5" fill="#5B5753" transform="matrix(1.00, 0.00, -0.00, -1.00, 139.8, 479.0)">C</text><text xml:space="preserve" font-family="Futura-Medium" font-size="36.5" fill="#5B5753" transform="matrix(1.00, 0.00, -0.00, -1.00, 169.4, 479.0)">H</text><text xml:space="preserve" font-family="Futura-Medium" font-size="36.5" fill="#5B5753" transform="matrix(1.00, 0.00, -0.00, -1.00, 199.4, 479.0)">A</text><text xml:space="preserve" font-family="Futura-Medium" font-size="36.5" fill="#5B5753" transform="matrix(1.00, 0.00, -0.00, -1.00, 229.7, 479.0)">R</text><text xml:space="preserve" font-family="Futura-Medium" font-size="36.5" fill="#5B5753" transform="matrix(1.00, 0.00, -0.00, -1.00, 255.0, 479.0)">A</text><text xml:space="preserve" font-family="Futura-Medium" font-size="36.5" fill="#5B5753" transform="matrix(1.00, 0.00, -0.00, -1.00, 284.0, 479.0)">C</text><text xml:space="preserve" font-family="Futura-Medium" font-size="36.5" fill="#5B5753" transform="matrix(1.00, 0.00, -0.00, -1.00, 312.8, 479.0)">T</text><text xml:space="preserve" font-family="Futura-Medium" font-size="36.5" fill="#5B5753" transform="matrix(1.00, 0.00, -0.00, -1.00, 333.7, 479.0)">E</text><text xml:space="preserve" font-family="Futura-Medium" font-size="36.5" fill="#5B5753" transform="matrix(1.00, 0.00, -0.00, -1.00, 357.7, 479.0)">R</text><text xml:space="preserve" font-family="Futura-Medium" font-size="36.5" fill="#5B5753" transform="matrix(1.00, 0.00, -0.00, -1.00, 382.9, 479.0)">S</text><text xml:space="preserve" font-family="Futura-Medium" font-size="36.5" fill="#5B5753" transform="matrix(1.00, 0.00, -0.00, -1.00, 407.5, 479.0)"> </text><text xml:space="preserve" font-family="Futura-Medium" font-size="36.5" fill="#5B5753" transform="matrix(1.00, 0.00, -0.00, -1.00, 114.0, 431.0)">-</text><text xml:space="preserve" font-family="Futura-Medium" font-size="36.5" fill="#5B5753" transform="matrix(1.00, 0.00, -0.00, -1.00, 125.2, 431.0)"> </text><text xml:space="preserve" font-family="Futura-Medium" font-size="36.5" fill="#5B5753" transform="matrix(1.00, 0.00, -0.00, -1.00, 139.8, 431.0)">L</text><text xml:space="preserve" font-family="Futura-Medium" font-size="36.5" fill="#5B5753" transform="matrix(1.00, 0.00, -0.00, -1.00, 159.2, 431.0)">I</text><text xml:space="preserve" font-family="Futura-Medium" font-size="36.5" fill="#5B5753" transform="matrix(1.00, 0.00, -0.00, -1.00, 173.3, 431.0)">N</text><text xml:space="preserve" font-family="Futura-Medium" font-size="36.5" fill="#5B5753" transform="matrix(1.00, 0.00, -0.00, -1.00, 207.3, 431.0)">E</text><text xml:space="preserve" font-family="Futura-Medium" font-size="36.5" fill="#5B5753" transform="matrix(1.00, 0.00, -0.00, -1.00, 231.3, 431.0)">S</text><text xml:space="preserve" font-family="Futura-Medium" font-size="36.5" fill="#5B5753" transform="matrix(1.00, 0.00, -0.00, -1.00, 255.8, 431.0)"> </text><text xml:space="preserve" font-family="Futura-Medium" font-size="36.5" fill="#5B5753" transform="matrix(1.00, 0.00, -0.00, -1.00, 114.0, 383.0)">-</text><text xml:space="preserve" font-family="Futura-Medium" font-size="36.5" fill="#5B5753" transform="matrix(1.00, 0.00, -0.00, -1.00, 125.2, 383.0)"> </text><text xml:space="preserve" font-family="Futura-Medium" font-size="36.5" fill="#5B5753" transform="matrix(1.00, 0.00, -0.00, -1.00, 139.8, 383.0)">N</text><text xml:space="preserve" font-family="Futura-Medium" font-size="36.5" fill="#5B5753" transform="matrix(1.00, 0.00, -0.00, -1.00, 174.0, 383.0)">A</text><text xml:space="preserve" font-family="Futura-Medium" font-size="36.5" fill="#5B5753" transform="matrix(1.00, 0.00, -0.00, -1.00, 204.3, 383.0)">R</text><text xml:space="preserve" font-family="Futura-Medium" font-size="36.5" fill="#5B5753" transform="matrix(1.00, 0.00, -0.00, -1.00, 229.6, 383.0)">R</text><text xml:space="preserve" font-family="Futura-Medium" font-size="36.5" fill="#5B5753" transform="matrix(1.00, 0.00, -0.00, -1.00, 254.8, 383.0)">A</text><text xml:space="preserve" font-family="Futura-Medium" font-size="36.5" fill="#5B5753" transform="matrix(1.00, 0.00, -0.00, -1.00, 283.6, 383.0)">T</text><text xml:space="preserve" font-family="Futura-Medium" font-size="36.5" fill="#5B5753" transform="matrix(1.00, 0.00, -0.00, -1.00, 304.5, 383.0)">I</text><text xml:space="preserve" font-family="Futura-Medium" font-size="36.5" fill="#5B5753" transform="matrix(1.00, 0.00, -0.00, -1.00, 318.5, 383.0)">O</text><text xml:space="preserve" font-family="Futura-Medium" font-size="36.5" fill="#5B5753" transform="matrix(1.00, 0.00, -0.00, -1.00, 354.4, 383.0)">N</text><text xml:space="preserve" font-family="Futura-Medium" font-size="36.5" fill="#5B5753" transform="matrix(1.00, 0.00, -0.00, -1.00, 388.5, 383.0)"> </text><text xml:space="preserve" font-family="Futura-Medium" font-size="36.5" fill="#5B5753" transform="matrix(1.00, 0.00, -0.00, -1.00, 114.0, 335.0)">-</text><text xml:space="preserve" font-family="Futura-Medium" font-size="36.5" fill="#5B5753" transform="matrix(1.00, 0.00, -0.00, -1.00, 125.2, 335.0)"> </text><text xml:space="preserve" font-family="Futura-Medium" font-size="36.5" fill="#5B5753" transform="matrix(1.00, 0.00, -0.00, -1.00, 139.8, 335.0)">D</text><text xml:space="preserve" font-family="Futura-Medium" font-size="36.5" fill="#5B5753" transform="matrix(1.00, 0.00, -0.00, -1.00, 169.5, 335.0)">E</text><text xml:space="preserve" font-family="Futura-Medium" font-size="36.5" fill="#5B5753" transform="matrix(1.00, 0.00, -0.00, -1.00, 193.5, 335.0)">C</text><text xml:space="preserve" font-family="Futura-Medium" font-size="36.5" fill="#5B5753" transform="matrix(1.00, 0.00, -0.00, -1.00, 222.3, 335.0)">I</text><text xml:space="preserve" font-family="Futura-Medium" font-size="36.5" fill="#5B5753" transform="matrix(1.00, 0.00, -0.00, -1.00, 236.3, 335.0)">S</text><text xml:space="preserve" font-family="Futura-Medium" font-size="36.5" fill="#5B5753" transform="matrix(1.00, 0.00, -0.00, -1.00, 260.9, 335.0)">I</text><text xml:space="preserve" font-family="Futura-Medium" font-size="36.5" fill="#5B5753" transform="matrix(1.00, 0.00, -0.00, -1.00, 274.9, 335.0)">O</text><text xml:space="preserve" font-family="Futura-Medium" font-size="36.5" fill="#5B5753" transform="matrix(1.00, 0.00, -0.00, -1.00, 310.8, 335.0)">N</text><text xml:space="preserve" font-family="Futura-Medium" font-size="36.5" fill="#5B5753" transform="matrix(1.00, 0.00, -0.00, -1.00, 344.9, 335.0)"> </text><text xml:space="preserve" font-family="Futura-Medium" font-size="36.5" fill="#5B5753" transform="matrix(1.00, 0.00, -0.00, -1.00, 114.0, 287.0)">-</text><text xml:space="preserve" font-family="Futura-Medium" font-size="36.5" fill="#5B5753" transform="matrix(1.00, 0.00, -0.00, -1.00, 125.2, 287.0)"> </text><text xml:space="preserve" font-family="Futura-Medium" font-size="36.5" fill="#5B5753" transform="matrix(1.00, 0.00, -0.00, -1.00, 139.8, 287.0)">D</text><text xml:space="preserve" font-family="Futura-Medium" font-size="36.5" fill="#5B5753" transform="matrix(1.00, 0.00, -0.00, -1.00, 169.5, 287.0)">U</text><text xml:space="preserve" font-family="Futura-Medium" font-size="36.5" fill="#5B5753" transform="matrix(1.00, 0.00, -0.00, -1.00, 199.7, 287.0)">B</text><text xml:space="preserve" font-family="Futura-Medium" font-size="36.5" fill="#5B5753" transform="matrix(1.00, 0.00, -0.00, -1.00, 224.6, 287.0)"> </text><text xml:space="preserve" font-family="Futura-Medium" font-size="36.5" fill="#5B5753" transform="matrix(1.00, 0.00, -0.00, -1.00, 239.2, 287.0)">V</text><text xml:space="preserve" font-family="Futura-Medium" font-size="36.5" fill="#5B5753" transform="matrix(1.00, 0.00, -0.00, -1.00, 265.9, 287.0)">O</text><text xml:space="preserve" font-family="Futura-Medium" font-size="36.5" fill="#5B5753" transform="matrix(1.00, 0.00, -0.00, -1.00, 301.8, 287.0)">I</text><text xml:space="preserve" font-family="Futura-Medium" font-size="36.5" fill="#5B5753" transform="matrix(1.00, 0.00, -0.00, -1.00, 315.8, 287.0)">C</text><text xml:space="preserve" font-family="Futura-Medium" font-size="36.5" fill="#5B5753" transform="matrix(1.00, 0.00, -0.00, -1.00, 344.6, 287.0)">E</text><text xml:space="preserve" font-family="Futura-Medium" font-size="36.5" fill="#5B5753" transform="matrix(1.00, 0.00, -0.00, -1.00, 368.6, 287.0)"> </text><text xml:space="preserve" font-family="Futura-Medium" font-size="36.5" fill="#5B5753" transform="matrix(1.00, 0.00, -0.00, -1.00, 114.0, 239.0)">-</text><text xml:space="preserve" font-family="Futura-Medium" font-size="36.5" fill="#5B5753" transform="matrix(1.00, 0.00, -0.00, -1.00, 125.2, 239.0)"> </text><text xml:space="preserve" font-family="Futura-Medium" font-size="36.5" fill="#5B5753" transform="matrix(1.00, 0.00, -0.00, -1.00, 139.8, 239.0)">…</text><text xml:space="preserve" font-family="Futura-Medium" font-size="105.0" fill="#5B5753" transform="matrix(1.00, 0.00, -0.00, -1.00, 103.0, 646.0)">S</text><text xml:space="preserve" font-family="Futura-Medium" font-size="105.0" fill="#5B5753" transform="matrix(1.00, 0.00, -0.00, -1.00, 166.3, 646.0)">C</text><text xml:space="preserve" font-family="Futura-Medium" font-size="105.0" fill="#5B5753" transform="matrix(1.00, 0.00, -0.00, -1.00, 242.0, 646.0)">R</text><text xml:space="preserve" font-family="Futura-Medium" font-size="105.0" fill="#5B5753" transform="matrix(1.00, 0.00, -0.00, -1.00, 307.3, 646.0)">I</text><text xml:space="preserve" font-family="Futura-Medium" font-size="105.0" fill="#5B5753" transform="matrix(1.00, 0.00, -0.00, -1.00, 340.4, 646.0)">P</text><text xml:space="preserve" font-family="Futura-Medium" font-size="105.0" fill="#5B5753" transform="matrix(1.00, 0.00, -0.00, -1.00, 399.2, 646.0)">T</text><text xml:space="preserve" font-family="Futura-Medium" font-size="105.0" fill="#5B5753" transform="matrix(1.00, 0.00, -0.00, -1.00, 451.8, 646.0)">S</text><text xml:space="preserve" font-family="Futura-Medium" font-size="24.0" fill="#9A958D" transform="matrix(1.00, 0.00, -0.00, -1.00, 952.0, 29.0)">5</text></g></svg>