<?xml version="1.0" encoding="UTF-8" standalone="no"?><svg xmlns="http://www.w3.org/2000/svg" xmlns:xlink="http://www.w3.org/1999/xlink" clip-rule="evenodd" stroke-miterlimit="4.00" viewBox="0 0 1920 1080"><desc>SVG generated by Keynote</desc><defs></defs><g transform="matrix(1.00, 0.00, -0.00, -1.00, 0.0, 1080.0)"><g><clipPath id="clip-39"><path d="M 0.0 1080.0 L 1920.0 1080.0 L 1920.0 0.0 L 0.0 0.0 Z M 0.0 1080.0 "></path></clipPath><g clip-path="url(#clip-39)"><image xlink:href="../../2AF03CBE-3447-4678-9A86-E69982E47C62/assets/624FFBF082642500D71474BB5AFE86C6.jpeg" width="1365.00" height="767.00" transform="matrix(1.41, 0.00, -0.00, -1.41, 0.0, 1080.0)"></image></g></g><text xml:space="preserve" font-family="Futura-Medium" font-size="149.0" fill="#5B5753" transform="matrix(1.00, 0.00, -0.00, -1.00, 127.0, 482.0)">A</text><text xml:space="preserve" font-family="Futura-Medium" font-size="149.0" fill="#5B5753" transform="matrix(1.00, 0.00, -0.00, -1.00, 240.3, 482.0)">L</text><text xml:space="preserve" font-family="Futura-Medium" font-size="149.0" fill="#5B5753" transform="matrix(1.00, 0.00, -0.00, -1.00, 309.4, 482.0)">L</text><text xml:space="preserve" font-family="Futura-Medium" font-size="149.0" fill="#5B5753" transform="matrix(1.00, 0.00, -0.00, -1.00, 378.6, 482.0)"> </text><text xml:space="preserve" font-family="Futura-Medium" font-size="149.0" fill="#5B5753" transform="matrix(1.00, 0.00, -0.00, -1.00, 427.5, 482.0)">Y</text><text xml:space="preserve" font-family="Futura-Medium" font-size="149.0" fill="#5B5753" transform="matrix(1.00, 0.00, -0.00, -1.00, 514.2, 482.0)">O</text><text xml:space="preserve" font-family="Futura-Medium" font-size="149.0" fill="#5B5753" transform="matrix(1.00, 0.00, -0.00, -1.00, 650.3, 482.0)">U</text><text xml:space="preserve" font-family="Futura-Medium" font-size="149.0" fill="#5B5753" transform="matrix(1.00, 0.00, -0.00, -1.00, 763.3, 482.0)"> </text><text xml:space="preserve" font-family="Futura-Medium" font-size="149.0" fill="#5B5753" transform="matrix(1.00, 0.00, -0.00, -1.00, 812.2, 482.0)">P</text><text xml:space="preserve" font-family="Futura-Medium" font-size="149.0" fill="#5B5753" transform="matrix(1.00, 0.00, -0.00, -1.00, 895.6, 482.0)">R</text><text xml:space="preserve" font-family="Futura-Medium" font-size="149.0" fill="#5B5753" transform="matrix(1.00, 0.00, -0.00, -1.00, 985.7, 482.0)">O</text><text xml:space="preserve" font-family="Futura-Medium" font-size="149.0" fill="#5B5753" transform="matrix(1.00, 0.00, -0.00, -1.00, 1116.9, 482.0)">V</text><text xml:space="preserve" font-family="Futura-Medium" font-size="149.0" fill="#5B5753" transform="matrix(1.00, 0.00, -0.00, -1.00, 1220.7, 482.0)">I</text><text xml:space="preserve" font-family="Futura-Medium" font-size="149.0" fill="#5B5753" transform="matrix(1.00, 0.00, -0.00, -1.00, 1267.6, 482.0)">D</text><text xml:space="preserve" font-family="Futura-Medium" font-size="149.0" fill="#5B5753" transform="matrix(1.00, 0.00, -0.00, -1.00, 1378.7, 482.0)">E</text><text xml:space="preserve" font-family="Futura-Medium" font-size="149.0" fill="#5B5753" transform="matrix(1.00, 0.00, -0.00, -1.00, 1466.0, 482.0)"> </text><text xml:space="preserve" font-family="Futura-Medium" font-size="149.0" fill="#5B5753" transform="matrix(1.00, 0.00, -0.00, -1.00, 1515.0, 482.0)">I</text><text xml:space="preserve" font-family="Futura-Medium" font-size="149.0" fill="#5B5753" transform="matrix(1.00, 0.00, -0.00, -1.00, 1561.8, 482.0)">S</text><text xml:space="preserve" font-family="Futura-Medium" font-size="149.0" fill="#5B5753" transform="matrix(1.00, 0.00, -0.00, -1.00, 1651.6, 482.0)">…</text><text xml:space="preserve" font-family="Futura-Medium" font-size="24.0" fill="#9A958D" transform="matrix(1.00, 0.00, -0.00, -1.00, 952.0, 29.0)">3</text></g></svg>