<?xml version="1.0" encoding="UTF-8" standalone="no"?><svg xmlns="http://www.w3.org/2000/svg" xmlns:xlink="http://www.w3.org/1999/xlink" clip-rule="evenodd" stroke-miterlimit="4.00" viewBox="0 0 1920 1080"><desc>SVG generated by Keynote</desc><defs></defs><g transform="matrix(1.00, 0.00, -0.00, -1.00, 0.0, 1080.0)"><g><clipPath id="clip-52"><path d="M 0.0 1080.0 L 1920.0 1080.0 L 1920.0 0.0 L 0.0 0.0 Z M 0.0 1080.0 "></path></clipPath><g clip-path="url(#clip-52)"><image xlink:href="../../670DBCF2-4A3F-475B-80C3-BB608FA62706/assets/7935799CFC4CBB568BC4FE19591F6190.jpeg" width="1365.00" height="767.00" transform="matrix(1.41, 0.00, -0.00, -1.41, 0.0, 1080.0)"></image></g></g><image xlink:href="../../670DBCF2-4A3F-475B-80C3-BB608FA62706/assets/80A327EE9DF797581279D77EF2C6DF3E.png" width="937.00" height="1542.00" transform="matrix(1.00, 0.00, -0.00, -1.00, 854.1, 1299.7)"></image><g><clipPath id="clip-53"><path d="M 894.0 986.0 L 1751.0 986.0 L 1751.0 73.0 L 894.0 73.0 Z M 894.1 986.3 "></path></clipPath><g clip-path="url(#clip-53)"><image xlink:href="../../670DBCF2-4A3F-475B-80C3-BB608FA62706/assets/9575CFE54B29B4E03BFE361C85E9AFBB.png" width="508.00" height="540.00" transform="matrix(1.69, 0.00, -0.00, -1.69, 894.0, 985.0)"></image></g></g><text xml:space="preserve" font-family="Futura-Medium" font-size="38.0" fill="#5B5753" transform="matrix(1.00, 0.00, -0.00, -1.00, 114.0, 573.0)">T</text><text xml:space="preserve" font-family="Futura-Medium" font-size="38.0" fill="#5B5753" transform="matrix(1.00, 0.00, -0.00, -1.00, 134.9, 573.0)">O</text><text xml:space="preserve" font-family="Futura-Medium" font-size="38.0" fill="#5B5753" transform="matrix(1.00, 0.00, -0.00, -1.00, 172.2, 573.0)"> </text><text xml:space="preserve" font-family="Futura-Medium" font-size="38.0" fill="#5B5753" transform="matrix(1.00, 0.00, -0.00, -1.00, 187.3, 573.0)">C</text><text xml:space="preserve" font-family="Futura-Medium" font-size="38.0" fill="#5B5753" transform="matrix(1.00, 0.00, -0.00, -1.00, 217.4, 573.0)">U</text><text xml:space="preserve" font-family="Futura-Medium" font-size="38.0" fill="#5B5753" transform="matrix(1.00, 0.00, -0.00, -1.00, 248.8, 573.0)">S</text><text xml:space="preserve" font-family="Futura-Medium" font-size="38.0" fill="#5B5753" transform="matrix(1.00, 0.00, -0.00, -1.00, 275.0, 573.0)">T</text><text xml:space="preserve" font-family="Futura-Medium" font-size="38.0" fill="#5B5753" transform="matrix(1.00, 0.00, -0.00, -1.00, 295.8, 573.0)">O</text><text xml:space="preserve" font-family="Futura-Medium" font-size="38.0" fill="#5B5753" transform="matrix(1.00, 0.00, -0.00, -1.00, 333.2, 573.0)">M</text><text xml:space="preserve" font-family="Futura-Medium" font-size="38.0" fill="#5B5753" transform="matrix(1.00, 0.00, -0.00, -1.00, 373.2, 573.0)"> </text><text xml:space="preserve" font-family="Futura-Medium" font-size="38.0" fill="#5B5753" transform="matrix(1.00, 0.00, -0.00, -1.00, 388.3, 573.0)">Y</text><text xml:space="preserve" font-family="Futura-Medium" font-size="38.0" fill="#5B5753" transform="matrix(1.00, 0.00, -0.00, -1.00, 413.0, 573.0)">O</text><text xml:space="preserve" font-family="Futura-Medium" font-size="38.0" fill="#5B5753" transform="matrix(1.00, 0.00, -0.00, -1.00, 450.4, 573.0)">U</text><text xml:space="preserve" font-family="Futura-Medium" font-size="38.0" fill="#5B5753" transform="matrix(1.00, 0.00, -0.00, -1.00, 481.9, 573.0)">R</text><text xml:space="preserve" font-family="Futura-Medium" font-size="38.0" fill="#5B5753" transform="matrix(1.00, 0.00, -0.00, -1.00, 508.2, 573.0)"> </text><text xml:space="preserve" font-family="Futura-Medium" font-size="38.0" fill="#5B5753" transform="matrix(1.00, 0.00, -0.00, -1.00, 523.3, 573.0)">G</text><text xml:space="preserve" font-family="Futura-Medium" font-size="38.0" fill="#5B5753" transform="matrix(1.00, 0.00, -0.00, -1.00, 557.5, 573.0)">A</text><text xml:space="preserve" font-family="Futura-Medium" font-size="38.0" fill="#5B5753" transform="matrix(1.00, 0.00, -0.00, -1.00, 589.0, 573.0)">M</text><text xml:space="preserve" font-family="Futura-Medium" font-size="38.0" fill="#5B5753" transform="matrix(1.00, 0.00, -0.00, -1.00, 629.0, 573.0)">E</text><text xml:space="preserve" font-family="Futura-Medium" font-size="105.0" fill="#5B5753" transform="matrix(1.00, 0.00, -0.00, -1.00, 103.0, 646.0)">C</text><text xml:space="preserve" font-family="Futura-Medium" font-size="105.0" fill="#5B5753" transform="matrix(1.00, 0.00, -0.00, -1.00, 178.1, 646.0)">O</text><text xml:space="preserve" font-family="Futura-Medium" font-size="105.0" fill="#5B5753" transform="matrix(1.00, 0.00, -0.00, -1.00, 274.0, 646.0)">N</text><text xml:space="preserve" font-family="Futura-Medium" font-size="105.0" fill="#5B5753" transform="matrix(1.00, 0.00, -0.00, -1.00, 364.8, 646.0)">F</text><text xml:space="preserve" font-family="Futura-Medium" font-size="105.0" fill="#5B5753" transform="matrix(1.00, 0.00, -0.00, -1.00, 420.3, 646.0)">I</text><text xml:space="preserve" font-family="Futura-Medium" font-size="105.0" fill="#5B5753" transform="matrix(1.00, 0.00, -0.00, -1.00, 453.4, 646.0)">G</text><text xml:space="preserve" font-family="Futura-Medium" font-size="105.0" fill="#5B5753" transform="matrix(1.00, 0.00, -0.00, -1.00, 544.0, 646.0)">S</text><text xml:space="preserve" font-family="Futura-Medium" font-size="24.0" fill="#9A958D" transform="matrix(1.00, 0.00, -0.00, -1.00, 952.0, 29.0)">7</text></g></svg>