<?xml version="1.0" encoding="UTF-8" standalone="no"?><svg xmlns="http://www.w3.org/2000/svg" xmlns:xlink="http://www.w3.org/1999/xlink" clip-rule="evenodd" stroke-miterlimit="4.00" viewBox="0 0 1920 1080"><desc>SVG generated by Keynote</desc><defs></defs><g transform="matrix(1.00, 0.00, -0.00, -1.00, 0.0, 1080.0)"><g><clipPath id="clip-46"><path d="M 0.0 1080.0 L 1920.0 1080.0 L 1920.0 0.0 L 0.0 0.0 Z M 0.0 1080.0 "></path></clipPath><g clip-path="url(#clip-46)"><image xlink:href="../../2AF03CBE-3447-4678-9A86-E69982E47C62/assets/624FFBF082642500D71474BB5AFE86C6.jpeg" width="1365.00" height="767.00" transform="matrix(1.41, 0.00, -0.00, -1.41, 0.0, 1080.0)"></image></g></g><image xlink:href="302C7BC302DD7AFFA812E07A62427A93.png" width="905.00" height="741.00" transform="matrix(1.00, 0.00, -0.00, -1.00, 955.0, 675.2)"></image><g><clipPath id="clip-47"><path d="M 995.0 512.0 L 1820.0 512.0 L 1820.0 99.0 L 995.0 99.0 Z M 995.0 512.0 "></path></clipPath><g clip-path="url(#clip-47)"><image xlink:href="71B45C006723727B0AC463753AD7E65F.jpeg" width="852.00" height="554.00" transform="matrix(1.00, 0.00, -0.00, -1.00, 972.0, 512.0)"></image></g></g><image xlink:href="../../6CD1A137-418B-4187-A1F8-ED1FEF4109EE/assets/302C7BC302DD7AFFA812E07A62427A93.png" width="905.00" height="741.00" transform="matrix(1.00, 0.00, -0.00, -1.00, 955.0, 1123.2)"></image><g><clipPath id="clip-48"><path d="M 995.0 960.0 L 1820.0 960.0 L 1820.0 547.0 L 995.0 547.0 Z M 995.0 960.0 "></path></clipPath><g clip-path="url(#clip-48)"><image xlink:href="C4851D4AF98C421CDB7247D2A17033BE.jpeg" width="848.00" height="495.00" transform="matrix(1.00, 0.00, -0.00, -1.00, 973.0, 1014.0)"></image></g></g><text xml:space="preserve" font-family="Futura-Medium" font-size="105.0" fill="#5B5753" transform="matrix(1.00, 0.00, -0.00, -1.00, 103.0, 646.0)">R</text><text xml:space="preserve" font-family="Futura-Medium" font-size="105.0" fill="#5B5753" transform="matrix(1.00, 0.00, -0.00, -1.00, 168.3, 646.0)">E</text><text xml:space="preserve" font-family="Futura-Medium" font-size="105.0" fill="#5B5753" transform="matrix(1.00, 0.00, -0.00, -1.00, 229.8, 646.0)">S</text><text xml:space="preserve" font-family="Futura-Medium" font-size="105.0" fill="#5B5753" transform="matrix(1.00, 0.00, -0.00, -1.00, 293.1, 646.0)">O</text><text xml:space="preserve" font-family="Futura-Medium" font-size="105.0" fill="#5B5753" transform="matrix(1.00, 0.00, -0.00, -1.00, 389.0, 646.0)">U</text><text xml:space="preserve" font-family="Futura-Medium" font-size="105.0" fill="#5B5753" transform="matrix(1.00, 0.00, -0.00, -1.00, 468.6, 646.0)">R</text><text xml:space="preserve" font-family="Futura-Medium" font-size="105.0" fill="#5B5753" transform="matrix(1.00, 0.00, -0.00, -1.00, 532.2, 646.0)">C</text><text xml:space="preserve" font-family="Futura-Medium" font-size="105.0" fill="#5B5753" transform="matrix(1.00, 0.00, -0.00, -1.00, 607.9, 646.0)">E</text><text xml:space="preserve" font-family="Futura-Medium" font-size="105.0" fill="#5B5753" transform="matrix(1.00, 0.00, -0.00, -1.00, 669.3, 646.0)">S</text><text xml:space="preserve" font-family="Futura-Medium" font-size="38.0" fill="#5B5753" transform="matrix(1.00, 0.00, -0.00, -1.00, 114.0, 478.0)">-</text><text xml:space="preserve" font-family="Futura-Medium" font-size="38.0" fill="#5B5753" transform="matrix(1.00, 0.00, -0.00, -1.00, 125.7, 478.0)"> </text><text xml:space="preserve" font-family="Futura-Medium" font-size="38.0" fill="#5B5753" transform="matrix(1.00, 0.00, -0.00, -1.00, 140.8, 478.0)">C</text><text xml:space="preserve" font-family="Futura-Medium" font-size="38.0" fill="#5B5753" transform="matrix(1.00, 0.00, -0.00, -1.00, 171.7, 478.0)">H</text><text xml:space="preserve" font-family="Futura-Medium" font-size="38.0" fill="#5B5753" transform="matrix(1.00, 0.00, -0.00, -1.00, 203.0, 478.0)">A</text><text xml:space="preserve" font-family="Futura-Medium" font-size="38.0" fill="#5B5753" transform="matrix(1.00, 0.00, -0.00, -1.00, 234.5, 478.0)">R</text><text xml:space="preserve" font-family="Futura-Medium" font-size="38.0" fill="#5B5753" transform="matrix(1.00, 0.00, -0.00, -1.00, 260.8, 478.0)">A</text><text xml:space="preserve" font-family="Futura-Medium" font-size="38.0" fill="#5B5753" transform="matrix(1.00, 0.00, -0.00, -1.00, 291.1, 478.0)">C</text><text xml:space="preserve" font-family="Futura-Medium" font-size="38.0" fill="#5B5753" transform="matrix(1.00, 0.00, -0.00, -1.00, 321.1, 478.0)">T</text><text xml:space="preserve" font-family="Futura-Medium" font-size="38.0" fill="#5B5753" transform="matrix(1.00, 0.00, -0.00, -1.00, 342.9, 478.0)">E</text><text xml:space="preserve" font-family="Futura-Medium" font-size="38.0" fill="#5B5753" transform="matrix(1.00, 0.00, -0.00, -1.00, 367.8, 478.0)">R</text><text xml:space="preserve" font-family="Futura-Medium" font-size="38.0" fill="#5B5753" transform="matrix(1.00, 0.00, -0.00, -1.00, 394.1, 478.0)"> </text><text xml:space="preserve" font-family="Futura-Medium" font-size="38.0" fill="#5B5753" transform="matrix(1.00, 0.00, -0.00, -1.00, 409.2, 478.0)">F</text><text xml:space="preserve" font-family="Futura-Medium" font-size="38.0" fill="#5B5753" transform="matrix(1.00, 0.00, -0.00, -1.00, 432.0, 478.0)">I</text><text xml:space="preserve" font-family="Futura-Medium" font-size="38.0" fill="#5B5753" transform="matrix(1.00, 0.00, -0.00, -1.00, 446.6, 478.0)">G</text><text xml:space="preserve" font-family="Futura-Medium" font-size="38.0" fill="#5B5753" transform="matrix(1.00, 0.00, -0.00, -1.00, 482.1, 478.0)">U</text><text xml:space="preserve" font-family="Futura-Medium" font-size="38.0" fill="#5B5753" transform="matrix(1.00, 0.00, -0.00, -1.00, 513.6, 478.0)">R</text><text xml:space="preserve" font-family="Futura-Medium" font-size="38.0" fill="#5B5753" transform="matrix(1.00, 0.00, -0.00, -1.00, 539.9, 478.0)">E</text><text xml:space="preserve" font-family="Futura-Medium" font-size="38.0" fill="#5B5753" transform="matrix(1.00, 0.00, -0.00, -1.00, 564.8, 478.0)">S</text><text xml:space="preserve" font-family="Futura-Medium" font-size="38.0" fill="#5B5753" transform="matrix(1.00, 0.00, -0.00, -1.00, 590.4, 478.0)"> </text><text xml:space="preserve" font-family="Futura-Medium" font-size="38.0" fill="#5B5753" transform="matrix(1.00, 0.00, -0.00, -1.00, 114.0, 428.0)">-</text><text xml:space="preserve" font-family="Futura-Medium" font-size="38.0" fill="#5B5753" transform="matrix(1.00, 0.00, -0.00, -1.00, 125.7, 428.0)"> </text><text xml:space="preserve" font-family="Futura-Medium" font-size="38.0" fill="#5B5753" transform="matrix(1.00, 0.00, -0.00, -1.00, 140.8, 428.0)">B</text><text xml:space="preserve" font-family="Futura-Medium" font-size="38.0" fill="#5B5753" transform="matrix(1.00, 0.00, -0.00, -1.00, 166.3, 428.0)">A</text><text xml:space="preserve" font-family="Futura-Medium" font-size="38.0" fill="#5B5753" transform="matrix(1.00, 0.00, -0.00, -1.00, 196.5, 428.0)">C</text><text xml:space="preserve" font-family="Futura-Medium" font-size="38.0" fill="#5B5753" transform="matrix(1.00, 0.00, -0.00, -1.00, 227.4, 428.0)">K</text><text xml:space="preserve" font-family="Futura-Medium" font-size="38.0" fill="#5B5753" transform="matrix(1.00, 0.00, -0.00, -1.00, 254.3, 428.0)">G</text><text xml:space="preserve" font-family="Futura-Medium" font-size="38.0" fill="#5B5753" transform="matrix(1.00, 0.00, -0.00, -1.00, 289.8, 428.0)">R</text><text xml:space="preserve" font-family="Futura-Medium" font-size="38.0" fill="#5B5753" transform="matrix(1.00, 0.00, -0.00, -1.00, 315.4, 428.0)">O</text><text xml:space="preserve" font-family="Futura-Medium" font-size="38.0" fill="#5B5753" transform="matrix(1.00, 0.00, -0.00, -1.00, 352.8, 428.0)">U</text><text xml:space="preserve" font-family="Futura-Medium" font-size="38.0" fill="#5B5753" transform="matrix(1.00, 0.00, -0.00, -1.00, 384.3, 428.0)">N</text><text xml:space="preserve" font-family="Futura-Medium" font-size="38.0" fill="#5B5753" transform="matrix(1.00, 0.00, -0.00, -1.00, 419.8, 428.0)">D</text><text xml:space="preserve" font-family="Futura-Medium" font-size="38.0" fill="#5B5753" transform="matrix(1.00, 0.00, -0.00, -1.00, 450.8, 428.0)"> </text><text xml:space="preserve" font-family="Futura-Medium" font-size="38.0" fill="#5B5753" transform="matrix(1.00, 0.00, -0.00, -1.00, 114.0, 378.0)">-</text><text xml:space="preserve" font-family="Futura-Medium" font-size="38.0" fill="#5B5753" transform="matrix(1.00, 0.00, -0.00, -1.00, 125.7, 378.0)"> </text><text xml:space="preserve" font-family="Futura-Medium" font-size="38.0" fill="#5B5753" transform="matrix(1.00, 0.00, -0.00, -1.00, 140.8, 378.0)">M</text><text xml:space="preserve" font-family="Futura-Medium" font-size="38.0" fill="#5B5753" transform="matrix(1.00, 0.00, -0.00, -1.00, 180.8, 378.0)">U</text><text xml:space="preserve" font-family="Futura-Medium" font-size="38.0" fill="#5B5753" transform="matrix(1.00, 0.00, -0.00, -1.00, 212.3, 378.0)">S</text><text xml:space="preserve" font-family="Futura-Medium" font-size="38.0" fill="#5B5753" transform="matrix(1.00, 0.00, -0.00, -1.00, 237.9, 378.0)">I</text><text xml:space="preserve" font-family="Futura-Medium" font-size="38.0" fill="#5B5753" transform="matrix(1.00, 0.00, -0.00, -1.00, 252.5, 378.0)">C</text><text xml:space="preserve" font-family="Futura-Medium" font-size="38.0" fill="#5B5753" transform="matrix(1.00, 0.00, -0.00, -1.00, 282.5, 378.0)">,</text><text xml:space="preserve" font-family="Futura-Medium" font-size="38.0" fill="#5B5753" transform="matrix(1.00, 0.00, -0.00, -1.00, 297.7, 378.0)"> </text><text xml:space="preserve" font-family="Futura-Medium" font-size="38.0" fill="#5B5753" transform="matrix(1.00, 0.00, -0.00, -1.00, 312.8, 378.0)">S</text><text xml:space="preserve" font-family="Futura-Medium" font-size="38.0" fill="#5B5753" transform="matrix(1.00, 0.00, -0.00, -1.00, 338.4, 378.0)">O</text><text xml:space="preserve" font-family="Futura-Medium" font-size="38.0" fill="#5B5753" transform="matrix(1.00, 0.00, -0.00, -1.00, 375.7, 378.0)">U</text><text xml:space="preserve" font-family="Futura-Medium" font-size="38.0" fill="#5B5753" transform="matrix(1.00, 0.00, -0.00, -1.00, 407.2, 378.0)">N</text><text xml:space="preserve" font-family="Futura-Medium" font-size="38.0" fill="#5B5753" transform="matrix(1.00, 0.00, -0.00, -1.00, 442.7, 378.0)">D</text><text xml:space="preserve" font-family="Futura-Medium" font-size="38.0" fill="#5B5753" transform="matrix(1.00, 0.00, -0.00, -1.00, 473.7, 378.0)"> </text><text xml:space="preserve" font-family="Futura-Medium" font-size="38.0" fill="#5B5753" transform="matrix(1.00, 0.00, -0.00, -1.00, 114.0, 328.0)">-</text><text xml:space="preserve" font-family="Futura-Medium" font-size="38.0" fill="#5B5753" transform="matrix(1.00, 0.00, -0.00, -1.00, 125.7, 328.0)"> </text><text xml:space="preserve" font-family="Futura-Medium" font-size="38.0" fill="#5B5753" transform="matrix(1.00, 0.00, -0.00, -1.00, 140.8, 328.0)">D</text><text xml:space="preserve" font-family="Futura-Medium" font-size="38.0" fill="#5B5753" transform="matrix(1.00, 0.00, -0.00, -1.00, 171.8, 328.0)">U</text><text xml:space="preserve" font-family="Futura-Medium" font-size="38.0" fill="#5B5753" transform="matrix(1.00, 0.00, -0.00, -1.00, 203.3, 328.0)">B</text><text xml:space="preserve" font-family="Futura-Medium" font-size="38.0" fill="#5B5753" transform="matrix(1.00, 0.00, -0.00, -1.00, 229.2, 328.0)"> </text><text xml:space="preserve" font-family="Futura-Medium" font-size="38.0" fill="#5B5753" transform="matrix(1.00, 0.00, -0.00, -1.00, 244.4, 328.0)">V</text><text xml:space="preserve" font-family="Futura-Medium" font-size="38.0" fill="#5B5753" transform="matrix(1.00, 0.00, -0.00, -1.00, 272.2, 328.0)">O</text><text xml:space="preserve" font-family="Futura-Medium" font-size="38.0" fill="#5B5753" transform="matrix(1.00, 0.00, -0.00, -1.00, 309.6, 328.0)">I</text><text xml:space="preserve" font-family="Futura-Medium" font-size="38.0" fill="#5B5753" transform="matrix(1.00, 0.00, -0.00, -1.00, 324.2, 328.0)">C</text><text xml:space="preserve" font-family="Futura-Medium" font-size="38.0" fill="#5B5753" transform="matrix(1.00, 0.00, -0.00, -1.00, 354.3, 328.0)">E</text><text xml:space="preserve" font-family="Futura-Medium" font-size="38.0" fill="#5B5753" transform="matrix(1.00, 0.00, -0.00, -1.00, 379.2, 328.0)"> </text><text xml:space="preserve" font-family="Futura-Medium" font-size="38.0" fill="#5B5753" transform="matrix(1.00, 0.00, -0.00, -1.00, 114.0, 278.0)">-</text><text xml:space="preserve" font-family="Futura-Medium" font-size="38.0" fill="#5B5753" transform="matrix(1.00, 0.00, -0.00, -1.00, 125.7, 278.0)"> </text><text xml:space="preserve" font-family="Futura-Medium" font-size="38.0" fill="#5B5753" transform="matrix(1.00, 0.00, -0.00, -1.00, 140.8, 278.0)">…</text><text xml:space="preserve" font-family="Futura-Medium" font-size="24.0" fill="#9A958D" transform="matrix(1.00, 0.00, -0.00, -1.00, 952.0, 28.0)">6</text></g></svg>